<svg width="133" height="41" viewBox="0 0 133 41" fill="none" xmlns="http://www.w3.org/2000/svg">
<g clip-path="url(#clip0_148_339)">
<path d="M93.7028 8.42059H86.6617C86.5017 8.42059 86.3416 8.58064 86.3416 8.74066V12.8213C86.3416 12.9813 86.5017 13.1414 86.6617 13.1414H93.7028C93.8628 13.1414 94.0229 12.9813 94.0229 12.8213V8.74066C94.1029 8.58064 93.9428 8.42059 93.7028 8.42059ZM93.6228 14.5016H80.0206C79.8606 14.5016 79.6205 14.6616 79.5405 14.8216L77.7803 21.4627L77.7002 21.7827L75.6199 14.6616C75.5399 14.5016 75.3799 14.3416 75.1398 14.3416H69.859C69.699 14.3416 69.4589 14.5016 69.3789 14.6616L67.3786 21.3027L67.2986 21.6227L67.2186 21.4627L66.4184 18.1822L65.5383 14.9016C65.4583 14.7416 65.2983 14.5816 65.0582 14.5816H54.4165V8.82065C54.4165 8.66063 54.1765 8.42059 53.9364 8.50061L47.2154 10.5809C46.9753 10.661 46.8953 10.741 46.8953 10.901V14.5016H45.135C44.975 14.5016 44.815 14.6616 44.815 14.8216V19.9425C44.815 20.1025 44.975 20.2625 45.135 20.2625H46.8953V26.5035C46.8953 30.9042 49.2957 32.9845 53.6964 32.9845C55.5367 32.9845 57.297 32.5845 58.4972 31.9444V26.6635C58.4972 26.4235 58.2571 26.3435 58.0971 26.3435C57.377 26.6635 56.8169 26.7435 56.1768 26.7435C54.9766 26.7435 54.3365 26.2634 54.3365 24.9032V20.3425H58.1771C58.3371 20.3425 58.4972 20.1825 58.4972 20.0224V15.7018L63.538 32.4244C63.618 32.5845 63.778 32.7445 64.0181 32.7445H69.6189C69.779 32.7445 70.019 32.5845 70.099 32.4244L72.4994 24.9832L73.6996 28.8239L74.8198 32.3444C74.8998 32.5045 75.0598 32.6645 75.2999 32.6645H80.9008C81.0608 32.6645 81.3008 32.5045 81.3808 32.3444L86.5017 15.5417V32.3444C86.5017 32.5045 86.6617 32.6645 86.8217 32.6645H93.6228C93.7828 32.6645 93.9428 32.5045 93.9428 32.3444V14.9016C93.9428 14.6616 93.7828 14.5016 93.6228 14.5016ZM102.584 8.42059H95.7831C95.6231 8.42059 95.4631 8.58064 95.4631 8.74066V32.3444C95.4631 32.5045 95.6231 32.6645 95.7831 32.6645H102.584C102.744 32.6645 102.904 32.5045 102.904 32.3444V8.74066C102.904 8.58064 102.744 8.42059 102.584 8.42059ZM111.626 8.42059H104.585C104.425 8.42059 104.264 8.58064 104.264 8.74066V12.8213C104.264 12.9813 104.425 13.1414 104.585 13.1414H111.626C111.786 13.1414 111.946 12.9813 111.946 12.8213V8.74066C112.026 8.58064 111.866 8.42059 111.626 8.42059ZM111.546 14.5016H104.745C104.585 14.5016 104.425 14.6616 104.425 14.8216V32.3444C104.425 32.5045 104.585 32.6645 104.745 32.6645H111.546C111.706 32.6645 111.866 32.5045 111.866 32.3444V14.9016C111.866 14.6616 111.706 14.5016 111.546 14.5016ZM122.827 14.1015C116.827 14.1015 112.586 18.5022 112.586 23.623V23.703C112.586 28.8239 116.826 33.1446 122.747 33.1446C128.748 33.1446 132.989 28.7438 132.989 23.623V23.543C132.989 18.4222 128.748 14.1015 122.827 14.1015ZM125.708 23.623C125.708 25.3833 124.508 26.7435 122.827 26.7435C121.147 26.7435 119.867 25.3033 119.867 23.543V23.463C119.867 21.7027 121.067 20.3425 122.747 20.3425C124.428 20.3425 125.708 21.7827 125.708 23.623ZM20.011 0.579346C8.96925 0.579346 0.0078125 9.54078 0.0078125 20.5825C0.0078125 31.6243 8.96925 40.5857 20.011 40.5857C31.0528 40.5857 40.0142 31.6243 40.0142 20.5825C40.0142 9.54078 31.0528 0.579346 20.011 0.579346ZM20.011 35.3049C11.8497 35.3049 5.28866 28.7438 5.28866 20.5825C5.28866 12.4212 11.8497 5.86019 20.011 5.86019C28.1723 5.86019 34.7334 12.4212 34.7334 20.5825C34.7334 28.7438 28.1723 35.3049 20.011 35.3049Z" fill="#1D1E25"/>
<path d="M24.9732 19.7825C27.271 19.7825 29.1338 17.9197 29.1338 15.6218C29.1338 13.324 27.271 11.4612 24.9732 11.4612C22.6753 11.4612 20.8125 13.324 20.8125 15.6218C20.8125 17.9197 22.6753 19.7825 24.9732 19.7825Z" fill="#1D1E25"/>
<path d="M24.9732 29.704C27.271 29.704 29.1338 27.8412 29.1338 25.5434C29.1338 23.2455 27.271 21.3827 24.9732 21.3827C22.6753 21.3827 20.8125 23.2455 20.8125 25.5434C20.8125 27.8412 22.6753 29.704 24.9732 29.704Z" fill="#1D1E25"/>
<path d="M15.0513 29.704C17.3491 29.704 19.212 27.8412 19.212 25.5434C19.212 23.2455 17.3491 21.3827 15.0513 21.3827C12.7534 21.3827 10.8906 23.2455 10.8906 25.5434C10.8906 27.8412 12.7534 29.704 15.0513 29.704Z" fill="#1D1E25"/>
<path d="M15.0513 19.7825C17.3491 19.7825 19.212 17.9197 19.212 15.6218C19.212 13.324 17.3491 11.4612 15.0513 11.4612C12.7534 11.4612 10.8906 13.324 10.8906 15.6218C10.8906 17.9197 12.7534 19.7825 15.0513 19.7825Z" fill="#1D1E25"/>
</g>
<defs>
<clipPath id="clip0_148_339">
<rect width="133" height="40.0064" fill="white" transform="translate(0 0.579346)"/>
</clipPath>
</defs>
</svg>
